#!OML:ASF E:\Steps\Project 1\Capture day 1\Session 2\Subject.ASF
:FULLY-SPECIFIED
:DEGREES
343
root 5.79949 17.8481 11.9837 -142.919 -0.0518702 179.598
lowerback -9.54809 -1.02213 -9.33395
upperback 3.68135 -0.142215 -1.44609
thorax 9.39275 -0.637201 3.65853
lowerneck -3.85922 1.19842 -1.20015
upperneck 9.72735 0.774778 6.02815
head 3.84484 0.460581 2.25744
rclavicle 1.27222e-014 3.18055e-014
rhumerus -28.8245 -0.529346 -80.5824
rradius 62.8577
rwrist -8.71057
rhand -9.38868 -410.84
rfingers 7.12502
rthumb 16.5723 -440.152
lclavicle 1.27222e-014 3.18055e-014
lhumerus -8.31936 -22.7406 63.9824
lradius 38.1122
lwrist 5.47035
lhand -22.4054 -15.4183
lfingers 7.12502
lthumb 4.01727 14.5236
rfemur -46.7901 3.15736 -2.64838
rtibia 72.1657
rfoot -1.15181 -19.0116
rtoes -14.9672
lfemur -69.3423 3.43113 -14.5137
ltibia 40.6347
lfoot -7.03714 3.48323
ltoes -33.2621
344
root 5.72961 17.8934 11.9144 -143.101 0.0412424 179.468
lowerback -9.57844 -1.10298 -9.35142
upperback 3.63755 -0.248356 -1.40851
thorax 9.37743 -0.687764 3.69059
lowerneck -3.79195 1.20949 -1.23632
upperneck 9.93377 0.786319 5.89774
head 3.90345 0.457656 2.223
rclavicle 2.54444e-014 9.38264e-014
rhumerus -29.4339 -0.654514 -80.3908
rradius 62.4514
rwrist -8.48917
rhand -9.91878 -410.177
rfingers 7.12502
rthumb 16.0619 -439.531
lclavicle 2.54444e-014 9.38264e-014
lhumerus -9.31456 -22.8262 64.8824
lradius 38.0059
lwrist 5.28716
lhand -22.3686 -15.3614
lfingers 7.12502
lthumb 4.05285 14.5798
rfemur -48.0675 3.56729 -2.15105
rtibia 73.7445
rfoot -1.94013 -18.876
rtoes -15.3638
lfemur -68.5724 2.95844 -14.8154
ltibia 40.2543
lfoot -7.18522 3.56199
ltoes -33.1634
345
root 5.6648 17.9352 11.8462 -143.301 0.160403 179.325
lowerback -9.68835 -1.19121 -9.44286
upperback 3.71923 -0.341861 -1.34375
thorax 9.54902 -0.750362 3.79262
lowerneck -3.91662 1.20295 -1.37122
upperneck 9.97056 0.797904 5.84493
head 3.94038 0.460942 2.23307
rclavicle -3.18055e-015 -7.71285e-014
rhumerus -29.7067 -0.86923 -80.1865
rradius 62.1056
rwrist -8.5418
rhand -10.1961 -410.244
rfingers 7.12502
rthumb 15.7948 -439.62
lclavicle -3.18055e-015 -7.71285e-014
lhumerus -10.0331 -22.8683 65.716
lradius 37.8222
lwrist 5.10812
lhand -22.5153 -15.3082
lfingers 7.12502
lthumb 3.91117 14.6357
rfemur -49.2721 3.97079 -1.67001
rtibia 74.9903
rfoot -2.6892 -18.5651
rtoes -15.7115
lfemur -67.7695 2.66352 -15.2605
ltibia 39.7802
lfoot -7.21428 3.48167
ltoes -33.6925
346
root 5.60247 17.9743 11.7814 -143.561 0.345971 179.118
lowerback -9.72422 -1.47873 -9.5866
upperback 3.81512 -0.398933 -1.32904
thorax 9.71098 -0.674568 3.89653
lowerneck -3.94337 0.829488 -1.67882
upperneck 9.78597 0.99719 6.04787
head 3.87524 0.8265 2.38272
rclavicle 1.59028e-014 -2.8625e-014
rhumerus -29.9604 -1.24732 -80.0511
rradius 61.8664
rwrist -8.4196
rhand -10.1518 -410.64
rfingers 7.12502
rthumb 15.8375 -440.012
lclavicle 1.59028e-014 -2.8625e-014
lhumerus -10.7954 -22.912 66.4795
lradius 37.7242
lwrist 5.04295
lhand -22.9183 -15.1791
lfingers 7.12502
lthumb 3.52195 14.7716
rfemur -50.5002 4.387 -1.2844
rtibia 76.3423
rfoot -4.21796 -17.9655
rtoes -14.7776
lfemur -66.9175 2.30263 -15.7012
ltibia 39.336
lfoot -7.30418 3.50973
ltoes -33.9986
347
root 5.5389 18.014 11.7173 -143.816 0.530007 178.948
lowerback -9.77234 -1.53995 -9.6896
upperback 3.91684 -0.448526 -1.32909
thorax 9.86402 -0.71233 3.94317
lowerneck -4.03811 0.852247 -1.84955
upperneck 9.67576 1.02564 6.15949
head 3.85422 0.835223 2.45257
rclavicle -7.95139e-016 -7.15625e-015
rhumerus -30.1482 -1.80085 -79.9182
rradius 61.4438
rwrist -7.99884
rhand -10.1546 -410.311
rfingers 7.12502
rthumb 15.8348 -439.683
lclavicle -7.95139e-016 -7.15625e-015
lhumerus -11.5468 -22.9414 67.1987
lradius 37.6502
lwrist 4.9287
lhand -23.1059 -15.3037
lfingers 7.12502
lthumb 3.34079 14.6499
rfemur -51.7403 4.83886 -0.806064
rtibia 77.5299
rfoot -5.36636 -17.3061
rtoes -14.8221
lfemur -66.0497 1.8861 -16.0185
ltibia 38.8386
lfoot -7.46926 3.67344
ltoes -33.3864
348
root 5.47563 18.053 11.6518 -144.035 0.670311 178.901
lowerback -9.88123 -1.5306 -9.61681
upperback 3.94926 -0.430128 -1.33855
thorax 9.95998 -0.703727 3.89421
lowerneck -4.03065 0.764768 -1.66231
upperneck 9.84537 0.908474 5.96836
head 3.91724 0.779828 2.35151
rclavicle 5.56597e-015 5.08889e-014
rhumerus -30.4641 -2.38201 -79.7662
rradius 60.8925
rwrist -7.72106
rhand -10.269 -409.863
rfingers 7.12502
rthumb 15.7246 -439.244
lclavicle 5.56597e-015 5.08889e-014
lhumerus -12.3243 -23.1172 67.926
lradius 37.4779
lwrist 4.7852
lhand -22.9526 -15.5281
lfingers 7.12502
lthumb 3.48887 14.4231
rfemur -52.8096 5.31078 -0.143257
rtibia 78.0977
rfoot -5.54226 -16.9545
rtoes -17.5585
lfemur -65.2031 1.61347 -16.2685
ltibia 38.2959
lfoot -7.63167 3.71774
ltoes -32.2186
